<?xml version="1.0" encoding="utf-8"?>
<svg viewBox="-727.004 -616.627 1906.763 1468.214" xmlns="http://www.w3.org/2000/svg">
  <path opacity="1.000000" stroke="none" d="M 526.296 223.01 C 547.358 212.925 567.767 213.416 587.871 226.468 C 596.576 232.12 599.961 240.888 601.914 250.157 C 609.428 285.831 606.742 320.374 592.91 353.612 C 591.583 356.801 589.72 358.722 586.354 358.246 C 579.476 357.275 572.422 356.683 565.834 354.584 C 553.139 350.539 541.832 343.466 530.5 335.584 C 535.818 329.911 540.964 324.687 545.811 319.197 C 555.941 307.723 565.376 295.776 570.172 280.788 C 574.417 267.522 569.641 256.177 557.064 251.119 C 554.571 250.117 551.049 250.13 548.583 251.084 C 539.337 254.66 533.171 262.083 527.337 269.633 C 512.3 289.089 501.092 310.89 490.811 333.158 C 478.889 358.979 467.424 385.026 456.03 411.099 C 453.886 416.005 452.474 421.401 451.689 426.741 C 450.814 432.701 453.408 435.125 459.451 434.812 C 471.932 434.166 483.236 429.544 494.627 425.172 C 500.472 422.929 504.928 419.371 508.954 414.533 C 521.968 398.891 536.638 385.171 556.24 377.764 C 576.962 369.933 600.762 375.614 613.07 392.051 C 616.527 396.666 619.555 402.221 620.806 407.736 C 630.357 449.842 616.087 492.363 581.464 517.764 C 576.629 521.311 570.868 523.642 565.46 526.392 C 558.359 530.002 551.48 529.127 544.613 524.798 C 534.845 518.642 525.538 512.06 518.623 502.517 C 514.676 497.071 510.652 497.54 508.595 503.752 C 505.23 513.915 501.437 524.029 499.318 534.508 C 496.205 549.891 503.159 568.999 527.958 567.782 C 542.357 567.075 555.47 562.172 568.037 555.899 C 605.653 537.123 633.817 507.974 657.633 474.119 C 658.466 472.935 659.335 471.776 661.63 470.538 C 662.546 475.765 663.892 480.973 664.258 486.221 C 664.638 491.686 664.081 497.188 663.919 502.673 C 663.65 511.781 659.547 518.447 652.897 524.627 C 622.821 552.579 589.833 575.958 550.875 590.389 C 535.652 596.028 519.926 599.734 503.554 600.752 C 478.027 602.338 460.47 588.429 456.436 563.172 C 452.506 538.574 455.748 515.322 466.531 493.068 C 470.837 484.182 473.157 474.161 475.421 464.408 C 476.935 457.885 474.88 455.961 468.01 455.892 C 458.015 455.79 449.432 459.933 441.099 464.765 C 435.749 467.867 432.449 472.255 430.067 478.023 C 400.411 549.85 369.668 621.167 333.027 689.619 C 315.247 722.837 296.394 755.378 272.061 784.302 C 255.167 804.384 234.299 817.557 207.73 821.205 C 182.589 824.657 160.344 812.747 149.014 789.518 C 142.793 776.765 139.01 763.462 141.165 749.287 C 143.047 736.905 149.42 726.799 157.17 717.508 C 168.318 704.142 181.953 693.683 196.578 684.37 C 199.416 682.564 201.434 683.36 203.722 685.203 C 211.209 691.231 215.797 699.301 219.531 707.813 C 223.031 715.797 225.941 724.026 228.968 731.779 C 220.372 734.913 212.058 737.391 204.257 740.939 C 195.756 744.806 188.65 750.693 184.178 759.168 C 177.91 771.044 184.31 786.819 196.999 789.129 C 201.705 789.985 207.357 788.723 211.756 786.715 C 224.135 781.062 232.848 770.886 239.584 759.568 C 254.268 734.89 268.571 709.947 282.076 684.585 C 291.64 666.626 299.648 647.804 308.33 629.355 C 309.014 627.901 309.532 626.363 309.396 623.7 C 307.275 624.505 304.843 624.897 303.088 626.189 C 296.094 631.342 289.095 636.527 282.492 642.155 C 267.567 654.876 256.039 651.902 249.089 633.09 C 247.769 629.517 247.29 625.661 246.361 621.949 C 245.897 620.1 245.292 618.283 244.471 615.507 C 242.459 617.357 241.134 618.478 239.918 619.709 C 222.702 637.131 205.122 654.217 183.195 665.768 C 175.31 669.922 166.565 672.957 157.818 674.986 C 143.398 678.332 129.011 670.864 120.899 657.108 C 115.418 647.814 112.257 637.819 111.073 627.215 C 110.885 625.532 110.237 623.887 109.465 620.941 C 107.278 623.666 105.817 625.317 104.541 627.102 C 76.517 666.314 44.935 702.146 5.858 730.779 C -18.401 748.555 -44.608 762.519 -74.018 770.669 C -90.635 775.274 -106.617 774.099 -123.035 768.846 C -154.462 758.789 -179.641 740.893 -195.916 711.471 C -207.823 689.946 -213.231 666.727 -214.859 642.679 C -218.178 593.664 -210.146 546.373 -194.003 501.015 C -186.885 481.012 -175.541 462.478 -164.902 444 C -144.376 408.347 -119.62 375.936 -88.759 348.559 C -61.033 323.962 -29.975 305.041 6.427 295.549 C 27.859 289.96 49.641 287.629 72.085 291.193 C 79.486 292.368 84.316 296.043 88.23 301.946 C 96.167 313.924 101.008 327.155 104.766 340.774 C 106.681 347.71 108.255 354.764 109.438 361.839 C 112.535 380.393 108.717 398.312 105.038 416.091 C 98.26 448.837 87.746 480.423 77.549 512.133 C 74.331 522.141 68.291 524.857 59.361 525.466 C 50.356 526.079 41.764 524.294 33.605 520.191 C 18.335 512.513 7.528 500.332 -1.593 485.657 C 14.327 478.922 27.476 469.272 38.244 456.641 C 59.592 431.602 72.597 402.739 74.054 369.146 C 74.392 361.351 73.262 353.053 70.891 345.538 C 66.364 331.193 54.807 326.129 40.621 330.872 C 28.807 334.823 18.887 341.81 9.823 349.958 C -22.042 378.606 -47.62 412.454 -69.795 448.984 C -89.587 481.59 -104.618 516.383 -113.84 553.746 C -118.69 573.395 -122.21 593.36 -121.976 613.706 C -121.67 640.297 -113.581 664.792 -95.545 685.488 C -79.088 704.374 -56.042 710.146 -32.661 701.931 C -11.962 694.658 5.497 682.072 22.611 669.074 C 56.921 643.018 86.095 612.116 107.781 574.631 C 115.166 561.865 120.707 548.007 127.833 535.074 C 142.196 509.008 159.411 485.187 182.377 465.866 C 216.05 437.536 255.916 452.88 276.78 479.14 C 279.308 482.322 281.954 482.935 284.15 480.096 C 288.551 474.402 294.918 473.223 301.274 472.782 C 309.332 472.224 317.504 472.797 326.5 472.891 C 323.639 477.966 320.941 482.722 318.271 487.494 C 303.34 514.176 288.772 541.077 278.978 570.269 C 276.025 579.071 274.355 588.494 273.358 597.805 C 272.3 607.683 279.447 613.421 287.19 617.698 C 294.689 621.841 300.903 618.334 306.684 613.623 C 319.065 603.535 327.42 590.457 333.949 576.107 C 349.136 542.727 364.13 509.255 379.208 475.824 C 380.085 473.879 381.101 471.997 381.909 470.024 C 385.556 461.12 381.777 455.912 372.057 455.558 C 364.446 455.283 356.727 454.845 349.257 453.325 C 338.936 451.224 329.761 446.01 321.674 439.133 C 320.194 437.874 319.011 435.067 319.225 433.195 C 320.355 423.237 323.968 414.127 328.874 405.4 C 346.073 416.068 364.329 423.055 383.611 427.267 C 384.592 427.481 385.585 427.629 386.565 427.849 C 400.704 431.016 410.433 425.797 416.386 413.059 C 426.405 391.615 436.751 370.33 446.559 348.786 C 461.425 316.134 476.339 283.516 495.234 253.02 C 502.954 240.559 512.819 230.139 526.296 223.01 M 173.65 577.126 C 171.036 587.679 168.143 598.163 165.898 608.804 C 164.142 617.129 167.246 623.598 174.009 627.835 C 183.484 633.772 192.865 633.034 201.527 625.507 C 211.786 616.591 219.857 605.861 226.7 594.162 C 241.895 568.185 250.167 539.578 256.131 510.125 C 256.462 508.491 256.002 506.449 255.314 504.836 C 250.76 494.166 241.087 490.814 230.626 497.896 C 221.902 503.803 213.863 511.105 206.835 518.973 C 191.929 535.659 181.899 555.488 173.65 577.126 M 588.253 446.733 C 591.824 435.891 593.054 424.776 590.411 413.396 C 589.113 407.81 585.445 405.852 580.247 407.93 C 577.099 409.188 573.793 410.869 571.528 413.277 C 563.123 422.208 554.679 431.167 547.082 440.783 C 538.306 451.892 538.56 466.969 546.629 479.349 C 553.306 489.591 565.444 490.566 571.578 480.407 C 577.894 469.946 582.647 458.512 588.253 446.733 Z" style="fill: rgb(204, 51, 0); transform-origin: 211.412px 517.164px;"/>
  <path opacity="1.000000" stroke="none" d="M -350.438 148.797 C -346.778 170.164 -343.117 191.085 -339.613 212.026 C -334.01 245.501 -328.497 278.989 -322.986 312.477 C -321.981 318.585 -321.091 324.709 -320.285 330.84 C -319.261 338.618 -322.25 343.21 -329.947 344.155 C -338.807 345.241 -347.789 346.11 -356.73 345.928 C -368.647 345.684 -380.335 346.249 -391.751 349.421 C -392.069 349.509 -392.394 349.575 -392.717 349.647 C -402.941 351.925 -405.153 350.396 -406.773 340.009 C -410.973 313.084 -414.907 286.12 -419.466 259.245 C -425.477 223.806 -432.151 188.461 -438.189 153.025 C -440.407 140.008 -441.623 126.848 -443.297 113.754 C -443.339 113.423 -443.304 113.05 -443.448 112.767 C -444.731 110.244 -446.048 107.737 -447.354 105.225 C -448.671 107.585 -450.779 109.794 -451.186 112.327 C -457.609 152.206 -463.945 192.103 -470.023 232.046 C -474.433 261.025 -478.561 290.057 -482.551 319.109 C -483.949 329.283 -484.687 339.574 -485.477 349.838 C -485.913 355.496 -488.623 359.011 -493.878 360.77 C -496.996 361.814 -500.07 362.988 -503.15 364.137 C -507.834 365.884 -511.538 363.93 -513.991 360.117 C -519.82 351.058 -526.231 342.18 -530.694 332.483 C -546.528 298.084 -561.405 263.268 -577.105 228.809 C -590.576 199.246 -604.64 169.936 -618.605 140.589 C -619.419 138.879 -622.03 136.477 -623.235 136.736 C -626.586 137.457 -625.166 140.403 -624.745 142.89 C -622.43 156.574 -620.279 170.283 -618.055 183.981 C -611.383 225.072 -604.674 266.157 -598.04 307.253 C -595.187 324.916 -592.48 342.6 -589.709 360.275 C -589.632 360.77 -589.578 361.27 -589.522 361.769 C -588.212 373.612 -589.501 375.966 -601.293 377.701 C -611.735 379.239 -622.37 380.039 -632.966 380.237 C -639.613 380.362 -642.869 377.366 -644.217 370.765 C -646.089 361.598 -647.281 352.302 -648.527 343.037 C -653.14 308.752 -657.401 274.427 -662.278 240.172 C -667.179 205.755 -672.467 171.379 -677.927 137.029 C -685.564 88.975 -693.54 40.964 -701.328 -7.071 C -703.897 -22.919 -706.614 -38.754 -708.729 -54.651 C -710.143 -65.285 -708.104 -67.571 -697.512 -69.047 C -682.742 -71.107 -667.898 -72.73 -653.156 -74.936 C -647.456 -75.789 -641.901 -77.567 -636.371 -79.203 C -625.315 -82.472 -619.144 -80.054 -614.426 -69.433 C -596.798 -29.758 -579.608 10.101 -561.783 49.691 C -550.389 74.997 -538.166 99.951 -526.313 125.063 C -525.164 127.5 -524.16 130.02 -522.799 132.336 C -521.883 133.894 -520.457 135.161 -519.259 136.557 C -518.8 136.403 -518.341 136.25 -517.883 136.096 C -517.51 134.084 -517.061 132.085 -516.775 130.057 C -509.791 80.509 -502.796 30.963 -495.87 -18.596 C -493.163 -37.958 -490.625 -57.35 -487.99 -76.725 C -487.744 -78.53 -487.444 -80.335 -487.026 -82.102 C -484.307 -93.626 -480.793 -96.549 -468.844 -98.044 C -447.625 -100.7 -426.43 -103.515 -405.223 -106.257 C -404.236 -106.383 -403.238 -106.438 -402.245 -106.53 C -395.412 -107.159 -394.069 -106.329 -392.721 -99.39 C -390.744 -89.21 -388.994 -78.993 -387.279 -68.772 C -381.3 -33.153 -375.446 2.484 -369.415 38.096 C -363.191 74.861 -356.816 111.605 -350.438 148.797 Z" style="fill: rgb(204, 51, 0); transform-origin: -515.447px 136.779px;"/>
  <path opacity="1.000000" stroke="none" d="M 315.503 71.934 C 316.32 41.857 316.741 12.228 318.044 -17.335 C 319.214 -43.892 321.394 -70.373 323.037 -96.898 C 323.479 -104.029 323.493 -111.2 323.883 -118.337 C 324.543 -130.402 329.479 -135.711 341.632 -135.357 C 355.43 -134.955 369.24 -133.494 383.026 -132.201 C 398.645 -130.738 414.27 -129.224 429.846 -127.245 C 455.342 -124.003 478.176 -113.389 500.563 -100.646 C 533.893 -81.671 557.582 -54.478 573.577 -20.263 C 581.438 -3.446 583.425 14.779 585.937 32.808 C 590.01 62.029 591.724 91.318 590.267 120.609 C 588.767 150.731 583.898 180.181 573.314 208.287 C 567.102 207.631 561.165 206.59 555.233 206.449 C 529.318 205.831 509.198 217.564 494.75 237.355 C 483.209 253.165 474.148 270.862 464.493 288.017 C 459.023 297.735 454.679 308.104 449.56 318.035 C 448.757 319.59 446.675 321.104 444.934 321.408 C 428.312 324.314 411.534 323.511 394.674 322.001 C 370.893 319.871 347.083 318.258 323.289 316.343 C 320.818 316.145 318.301 315.639 315.933 314.855 C 308.382 312.353 305.786 309.033 306.122 301.069 C 307.103 277.815 308.367 254.581 309.523 231.339 C 309.564 230.508 309.664 229.682 309.693 228.852 C 310.588 202.44 311.409 176.026 312.386 149.62 C 313.339 123.879 314.449 98.147 315.503 71.934 M 397.983 199.151 C 397.387 216.925 396.377 234.685 396.321 252.478 C 396.272 267.818 407.053 274.461 420.687 267.647 C 450.142 252.928 469.364 228.731 481.652 198.765 C 491.916 173.733 493.119 146.616 495.199 119.888 C 497.182 94.389 497.84 68.721 494.966 43.061 C 493.26 27.831 491.929 12.431 488.436 -2.482 C 482.347 -28.482 465.96 -48.286 446.068 -65.717 C 436.799 -73.84 427.098 -75.018 416.262 -71.573 C 407.787 -68.877 406.656 -66.866 406.777 -57.952 C 406.925 -46.967 406.786 -35.978 406.416 -25.014 C 405.519 1.566 404.305 28.127 403.434 54.708 C 402.824 73.324 402.83 91.981 402.098 110.586 C 400.95 139.812 399.411 169.01 397.983 199.151 Z" style="fill: rgb(204, 51, 0); transform-origin: 447.104px 94.695px;"/>
  <path opacity="1.000000" stroke="none" d="M -87.32 103.602 C -74.186 134.8 -61.251 165.654 -48.245 196.478 C -35.76 226.067 -23.196 255.623 -10.686 285.2 C -10.164 286.434 -9.834 287.744 -9.24 289.547 C -12.126 290.681 -15.091 291.57 -17.794 292.954 C -33.272 300.879 -48.668 308.956 -64.145 316.882 C -66.254 317.962 -68.601 318.94 -70.943 319.182 C -79.359 320.048 -87.824 320.539 -96.263 321.247 C -105.14 321.991 -110.564 318.52 -113.575 309.971 C -120.319 290.812 -127.065 271.652 -133.758 252.475 C -138.695 238.328 -140.078 237.419 -154.754 238.441 C -171.323 239.594 -187.899 240.662 -204.478 241.713 C -212.252 242.207 -215.648 245.54 -216.855 253.113 C -219.747 271.245 -223.018 289.305 -225.811 307.453 C -226.584 312.482 -226.344 317.716 -226.345 322.862 C -226.347 329.455 -228.872 332.183 -235.331 332.68 C -251.718 333.939 -268.098 335.268 -284.469 336.682 C -292.451 337.372 -294.155 335.876 -292.539 327.862 C -289.926 314.903 -286.577 302.11 -284.088 289.125 C -279.914 267.367 -276.247 245.497 -272.233 223.703 C -264.805 183.369 -257.353 143.04 -249.778 102.738 C -238.385 42.124 -226.875 -18.465 -215.419 -79.066 C -212.687 -93.524 -210.001 -107.991 -207.23 -122.441 C -206.202 -127.8 -205.651 -133.838 -198.867 -134.985 C -192.214 -136.111 -186.292 -133.419 -182.77 -127.754 C -177.89 -119.906 -173.254 -111.754 -169.779 -103.249 C -160.695 -81.016 -152.469 -58.458 -143.588 -36.146 C -130.725 -3.825 -117.579 28.391 -104.571 60.659 C -98.853 74.846 -93.181 89.05 -87.32 103.602 M -195.934 136.31 C -199.177 154.521 -202.398 172.737 -205.673 190.942 C -208.168 204.815 -207.385 205.571 -193.551 204.737 C -181.803 204.027 -169.996 203.985 -158.25 203.268 C -152.61 202.923 -151.422 200.539 -153.387 195.247 C -157.647 183.775 -162.108 172.371 -166.206 160.846 C -172.769 142.386 -179.098 123.849 -185.557 105.356 C -185.866 104.47 -186.471 103.681 -187.685 101.513 C -193.625 112.752 -192.387 124.801 -195.934 136.31 Z" style="fill: rgb(204, 51, 0); transform-origin: -155.003px 101.704px;"/>
  <path opacity="1.000000" stroke="none" d="M 691.787 69.412 C 714.942 15.588 737.901 -37.913 760.919 -91.389 C 762.915 -96.029 764.595 -101.334 771.162 -101.183 C 778.084 -101.024 783.251 -97.284 785.675 -91.125 C 788.609 -83.672 791.06 -75.889 792.481 -68.06 C 796.53 -45.743 799.904 -23.323 803.631 -0.957 C 807.882 24.545 812.165 50.043 816.55 75.526 C 822.068 107.592 827.404 139.69 833.373 171.688 C 839.461 204.321 846.398 236.819 852.631 269.43 C 858.615 300.732 864.184 332.101 869.908 363.445 C 871.065 369.783 868.438 373.778 861.91 373.677 C 852.298 373.531 842.629 372.787 833.06 371.549 C 813.52 369.02 794.021 366.068 774.525 363.134 C 765.972 361.847 762.239 358.359 761.05 349.924 C 758.814 334.057 757.037 318.141 754.984 302.255 C 754.131 295.643 753.138 289.044 752.068 282.458 C 750.827 274.831 748.902 272.796 741.111 271.562 C 731.205 269.991 721.251 268.798 711.334 267.316 C 703.073 266.082 694.832 264.676 686.585 263.33 C 678.174 261.957 674.239 264.061 671.287 271.359 C 665.494 285.679 659.392 299.873 653.918 314.322 C 651.021 321.971 649.036 330.003 646.914 337.945 C 645.766 342.242 643.588 345.707 638.954 345.168 C 628.897 343.996 618.904 342.086 608.84 340.471 C 610.548 331.416 612.456 322.597 613.843 313.681 C 616.637 295.73 616.569 277.686 613.521 259.547 C 613.082 256.935 613.536 253.857 614.56 251.435 C 639.613 192.21 664.799 133.046 689.957 73.868 C 690.537 72.506 691.059 71.117 691.787 69.412 M 707.866 183.84 C 702.989 195.699 697.958 207.493 693.304 219.443 C 691.001 225.358 693.093 228.027 699.426 229.039 C 708.66 230.513 717.845 232.346 727.071 233.876 C 731.843 234.667 736.651 235.292 741.459 235.696 C 745.368 236.024 746.827 233.664 746.302 230.047 C 744.264 216.02 741.987 202.018 740.095 187.977 C 737.714 170.305 735.628 152.601 733.382 134.915 C 733.266 134.011 732.836 133.139 732.137 130.95 C 730.129 133.338 728.251 134.758 727.446 136.659 C 720.91 152.106 714.575 167.644 707.866 183.84 Z" style="fill: rgb(204, 51, 0); transform-origin: 734.754px 135.392px;"/>
  <path opacity="1.000000" stroke="none" d="M 943.982 187.973 C 947.661 175.174 944.165 163.227 940.744 151.278 C 933.324 125.368 925.838 99.476 918.502 73.545 C 908.931 39.717 899.485 5.857 889.975 -27.987 C 887.349 -37.333 884.501 -46.627 882.084 -56.021 C 879.013 -67.963 882.835 -72.238 895.307 -70.592 C 907.561 -68.976 919.761 -66.837 931.993 -65.007 C 938.936 -63.969 945.9 -63.1 952.852 -62.14 C 961.059 -61.006 964.869 -57.367 967.122 -49.337 C 976.707 -15.181 986.429 18.939 996.051 53.085 C 1001.225 71.445 1006.199 89.857 1011.549 108.17 C 1012.196 110.386 1014.436 113.405 1016.282 113.734 C 1018.121 114.061 1021.21 111.979 1022.355 110.084 C 1041.374 78.598 1060.157 46.968 1079.026 15.388 C 1087.195 1.717 1095.394 -11.937 1103.656 -25.55 C 1109.986 -35.98 1117.959 -39.32 1130.158 -36.967 C 1137.554 -35.539 1145.013 -34.462 1152.362 -32.805 C 1160.857 -30.89 1162.454 -27.89 1158.329 -20.507 C 1149.755 -5.164 1140.867 10.001 1131.875 25.095 C 1108.763 63.884 1085.599 102.642 1062.284 141.305 C 1056.439 150.998 1049.34 159.94 1043.879 169.836 C 1034.121 187.516 1031.062 207.383 1028.46 227.304 C 1024.352 258.772 1020.195 290.231 1016.03 321.689 C 1013.274 342.5 1010.345 363.282 1007.734 384.115 C 1006.191 396.425 1003.378 399.011 990.92 397.115 C 970.76 394.047 950.626 390.751 930.508 387.358 C 921.563 385.849 919.821 384.125 920.616 374.978 C 921.92 359.978 924.087 345.079 925.932 330.145 C 929.277 303.056 932.606 275.965 936.028 248.889 C 938.578 228.711 941.266 208.556 943.982 187.973 Z" style="fill: rgb(204, 51, 0); transform-origin: 1023.79px 164.208px;"/>
  <path opacity="1.000000" stroke="none" d="M 145.973 36.404 C 141.116 47.975 136.355 59.173 131.603 70.374 C 123.299 89.939 121.938 110.737 122.787 131.861 C 124.991 186.678 127.307 241.494 129.629 296.311 C 130.281 311.691 128.157 313.751 112.807 314.183 C 107.592 314.329 104.207 313.301 102.791 307.893 C 102.42 306.473 101.38 305.219 100.728 303.852 C 93.497 288.685 81.868 280.486 64.982 280.477 C 57.199 280.472 49.413 280.327 41.447 280.244 C 41.22 278.427 41 277.305 40.95 276.178 C 39.618 246.357 38.286 216.534 36.993 186.711 C 35.866 160.725 34.734 134.739 33.712 108.751 C 33.242 96.832 27.641 86.565 22.662 76.103 C -4.539 18.951 -31.808 -38.172 -59.018 -95.32 C -62.78 -103.219 -66.627 -111.1 -69.92 -119.187 C -73.216 -127.279 -70.901 -131.226 -62.291 -132.258 C -55.887 -133.026 -49.361 -133.017 -42.88 -133.219 C -28.746 -133.659 -14.598 -133.904 -0.471 -134.443 C 7.16 -134.734 12.188 -131.397 15.472 -124.516 C 38.384 -76.514 61.375 -28.547 84.312 19.444 C 85.18 21.259 85.42 23.447 86.565 25.026 C 87.73 26.631 89.701 28.749 91.233 28.727 C 93.063 28.7 95.688 27.054 96.426 25.389 C 99.28 18.941 101.484 12.192 103.997 5.582 C 120.321 -37.352 136.649 -80.285 153.008 -123.204 C 157.88 -135.987 164.862 -140.376 178.84 -139.851 C 186.495 -139.563 194.161 -139.753 201.804 -139.229 C 208.558 -138.767 210.302 -136.189 208.18 -129.508 C 205.386 -120.719 202.095 -112.096 198.839 -103.473 C 181.281 -56.959 163.667 -10.466 145.973 36.404 Z" style="fill: rgb(204, 51, 0); transform-origin: 74.049px 86.416px;"/>
  <path opacity="1.000000" stroke="none" d="M -294.328 -299.653 C -303.884 -312.924 -313.439 -326.197 -323.001 -339.465 C -323.692 -340.424 -324.822 -341.265 -325.073 -342.304 C -325.631 -344.617 -325.761 -347.022 -326.066 -349.39 C -323.903 -349.549 -321.443 -350.486 -319.627 -349.743 C -306.26 -344.265 -293.021 -338.457 -279.747 -332.738 C -276.706 -331.428 -273.691 -330.06 -269.797 -329.539 C -273.359 -334.451 -276.8 -339.455 -280.507 -344.257 C -287.01 -352.678 -293.556 -361.073 -300.325 -369.283 C -303.552 -373.197 -303.699 -376.241 -300.435 -380.158 C -293.51 -388.47 -294.284 -388.329 -288.168 -379.817 C -267.48 -351.024 -246.891 -322.161 -226.343 -293.271 C -225.51 -292.098 -225.47 -290.372 -225.06 -288.904 C -226.859 -288.466 -228.933 -287.196 -230.412 -287.725 C -238.924 -290.772 -247.314 -294.197 -255.71 -297.586 C -263.916 -300.898 -272.079 -304.32 -280.261 -307.695 C -280.55 -307.362 -280.838 -307.029 -281.126 -306.696 C -279.581 -304.46 -278.061 -302.204 -276.485 -299.988 C -267.967 -288.018 -259.385 -276.092 -250.972 -264.049 C -249.936 -262.568 -249.778 -260.486 -249.214 -258.682 C -251.214 -258.18 -253.299 -257.026 -255.194 -257.331 C -257.924 -257.769 -260.553 -259.174 -263.161 -260.326 C -292.857 -273.435 -322.536 -286.587 -352.232 -299.696 C -359.12 -302.736 -359.637 -304.067 -355.074 -309.692 C -343.648 -323.787 -348.92 -322.872 -331.368 -315.392 C -319.309 -310.254 -307.451 -304.61 -295.047 -298.968 C -294.338 -298.795 -294.087 -298.845 -293.836 -298.896 C -294 -299.148 -294.164 -299.401 -294.328 -299.653 Z" style="fill: rgb(204, 51, 0); transform-origin: -278.841px -321.837px;"/>
  <path opacity="1.000000" stroke="none" d="M 448.778 -495.951 C 438.566 -483.543 428.354 -471.135 418.141 -458.728 C 417.515 -457.969 416.996 -457.065 416.229 -456.49 C 414.999 -455.566 412.942 -453.879 412.4 -454.251 C 410.911 -455.275 409.179 -457.172 409.074 -458.778 C 408.826 -462.548 409.34 -466.368 409.775 -470.135 C 412.281 -491.858 414.827 -513.574 417.419 -535.284 C 418.557 -544.815 419.797 -554.33 421.063 -563.842 C 421.962 -570.595 423.019 -571.179 429.272 -568.66 C 430.833 -568.032 432.372 -567.348 433.92 -566.688 C 446.182 -561.468 444.335 -563.317 442.733 -550.012 C 441.012 -535.729 438.84 -521.514 437.868 -506.594 C 441.142 -510.648 444.45 -514.673 447.683 -518.761 C 454.909 -527.895 462.077 -537.074 469.325 -546.19 C 470.225 -547.323 471.329 -548.401 472.566 -549.131 C 476.159 -551.256 478.898 -549.864 478.942 -545.611 C 478.993 -540.643 478.676 -535.65 478.099 -530.728 C 476.612 -518.065 474.887 -505.437 473.284 -492.791 C 473.211 -492.215 473.4 -491.598 473.594 -489.861 C 478.483 -496.139 482.856 -501.592 487.053 -507.181 C 492.767 -514.789 498.493 -522.398 503.922 -530.213 C 506.45 -533.853 509.042 -534.414 513.181 -532.653 C 523.398 -528.304 523.608 -528.354 516.741 -519.757 C 500.255 -499.115 483.641 -478.579 467.035 -458.034 C 462.089 -451.917 457.055 -445.869 451.927 -439.905 C 451.091 -438.935 449.182 -437.754 448.425 -438.116 C 447.148 -438.726 445.711 -440.433 445.555 -441.783 C 445.154 -445.241 445.154 -448.789 445.471 -452.243 C 446.755 -466.278 448.218 -480.289 449.745 -494.915 C 449.509 -495.664 449.143 -495.808 448.778 -495.951 Z" style="fill: rgb(204, 51, 0); transform-origin: 484.026px -503.545px;"/>
  <path opacity="1.000000" stroke="none" d="M 522.602 -439.482 C 535.909 -459.833 549.093 -479.842 562.061 -499.994 C 564.358 -503.563 566.307 -503.891 569.541 -501.129 C 572.359 -498.72 575.296 -496.272 578.551 -494.598 C 584.549 -491.513 584.755 -486.782 584.141 -481.153 C 582.2 -463.375 580.532 -445.56 578.786 -427.755 C 578.761 -427.5 579.091 -427.2 579.855 -425.906 C 583.057 -430.801 586.076 -435.248 588.922 -439.807 C 594.825 -449.261 600.539 -458.838 606.584 -468.197 C 607.564 -469.711 610.23 -471.582 611.451 -471.166 C 614.328 -470.185 616.946 -468.089 619.321 -466.039 C 619.802 -465.624 619.089 -463.207 618.369 -462.078 C 600.164 -433.587 581.855 -405.163 563.655 -376.668 C 561.507 -373.307 559.637 -373.005 556.049 -375.279 C 550.024 -379.096 547.927 -383.781 548.397 -390.83 C 549.712 -410.534 550.339 -430.305 551.263 -450.047 C 551.387 -452.673 551.662 -455.288 551.029 -458.432 C 549.816 -456.852 548.49 -455.347 547.409 -453.68 C 537.5 -438.39 527.52 -423.146 517.833 -407.711 C 515.381 -403.804 513.152 -404.08 509.785 -406.459 C 503.864 -410.642 503.34 -411.365 506.221 -415.689 C 511.494 -423.604 516.997 -431.363 522.602 -439.482 Z" style="fill: rgb(204, 51, 0); transform-origin: 579.041px -438.221px;"/>
  <path opacity="1.000000" stroke="none" d="M 188.883 -547.619 C 186.473 -545.378 184.526 -543.025 182.048 -541.522 C 178.185 -539.18 178.326 -536.587 180.91 -533.433 C 189.472 -522.983 198.124 -512.603 206.611 -502.093 C 208.425 -499.846 209.694 -497.165 211.213 -494.683 C 208.722 -494.081 206.267 -493.176 203.73 -492.937 C 198.116 -492.409 192.445 -491.758 186.829 -492.108 C 184.544 -492.251 181.653 -494.399 180.217 -496.444 C 174.298 -504.867 168.841 -513.609 163.191 -522.217 C 161.94 -524.121 160.588 -525.962 158.205 -527.475 C 158.231 -526.135 158.173 -524.791 158.299 -523.458 C 159.157 -514.321 159.987 -505.181 160.968 -496.053 C 161.391 -492.109 160.148 -490.171 155.908 -490.23 C 151.922 -490.284 147.93 -489.924 143.969 -489.522 C 140.476 -489.169 139.219 -490.716 138.934 -494.046 C 137.107 -515.326 135.15 -536.597 133.275 -557.873 C 132.133 -570.833 131.212 -583.807 129.863 -596.751 C 129.454 -600.666 130.449 -602.292 134.4 -602.321 C 145.711 -602.403 157.048 -603.413 168.318 -602.629 C 185.487 -601.436 195.162 -590.404 195.862 -573.106 C 196.236 -563.891 195.218 -555.153 188.883 -547.619 M 169.855 -581.118 C 167.604 -584.407 165.847 -588.287 162.919 -590.768 C 161.083 -592.323 157.225 -592.575 154.778 -591.852 C 153.425 -591.451 152.333 -587.81 152.462 -585.671 C 153.134 -574.549 154.11 -563.43 155.269 -552.332 C 155.597 -549.192 156.893 -546.125 157.745 -543.024 C 160.974 -544.712 164.308 -546.239 167.38 -548.171 C 168.51 -548.883 169.299 -550.447 169.773 -551.799 C 173.055 -561.178 174.386 -570.689 169.855 -581.118 Z" style="fill: rgb(204, 51, 0); transform-origin: 190.693px -545.789px;"/>
  <path opacity="1.000000" stroke="none" d="M -118.954 -398.219 C -137.123 -426.658 -155.127 -454.776 -173.082 -482.924 C -177.087 -489.203 -177.125 -489.452 -170.981 -493.04 C -161.921 -498.333 -152.97 -503.935 -143.431 -508.273 C -128.889 -514.885 -116.045 -510.471 -106.964 -496.725 C -98.987 -484.652 -96.241 -472.136 -103.286 -459.053 C -104.878 -456.096 -104.392 -454.044 -101.237 -452.635 C -89.424 -447.358 -77.591 -442.132 -65.806 -436.791 C -62.382 -435.239 -59.093 -433.369 -55.743 -431.645 C -58.476 -429.259 -61.073 -426.689 -63.988 -424.545 C -66.349 -422.807 -69.413 -421.947 -71.602 -420.053 C -76.51 -415.809 -80.895 -416.332 -86.393 -419.841 C -95.338 -425.547 -104.803 -430.415 -114.065 -435.603 C -114.879 -436.058 -115.822 -436.272 -118.067 -437.102 C -112.197 -427.848 -107.035 -419.717 -101.882 -411.582 C -101.069 -410.301 -100.25 -409.021 -99.503 -407.702 C -98.128 -405.275 -98.31 -403.351 -100.937 -401.887 C -104.376 -399.969 -107.834 -398.025 -111.003 -395.713 C -114.65 -393.053 -116.99 -393.996 -118.954 -398.219 M -125.948 -483.399 C -130.451 -488.763 -135.27 -493.999 -142.443 -495.108 C -144.92 -495.491 -148.406 -494.105 -150.083 -492.281 C -151.156 -491.114 -150.505 -487.229 -149.346 -485.311 C -143.161 -475.075 -136.636 -465.034 -130.067 -455.029 C -128.762 -453.041 -126.753 -451.502 -125.07 -449.757 C -123.283 -451.787 -121.002 -453.565 -119.852 -455.92 C -118.754 -458.166 -117.912 -461.253 -118.573 -463.55 C -120.45 -470.079 -123.152 -476.395 -125.948 -483.399 Z" style="fill: rgb(204, 51, 0); transform-origin: -98.406px -452.506px;"/>
  <path opacity="1.000000" stroke="none" d="M 703.256 -259.465 C 685.805 -255.264 672.172 -261.403 660.988 -274.607 C 656.95 -279.373 653.195 -284.375 649.211 -289.187 C 646.436 -292.539 646.406 -294.974 650.037 -297.859 C 675.059 -317.725 699.91 -337.803 724.836 -357.789 C 731.679 -363.275 732.607 -363.394 737.791 -356.151 C 743.443 -348.255 749.731 -340.395 753.387 -331.601 C 759.741 -316.315 758.002 -301.578 746.848 -288.93 C 734.975 -275.467 722.004 -263.686 703.256 -259.465 M 695.614 -305.755 C 688.435 -300.048 681.171 -294.443 674.15 -288.55 C 672.722 -287.351 671.164 -284.824 671.556 -283.364 C 671.963 -281.848 674.516 -280.351 676.39 -279.774 C 684.569 -277.255 692.667 -277.801 700.076 -281.647 C 713.798 -288.771 725.352 -298.618 734.833 -310.779 C 739.29 -316.494 740.468 -323.386 739.353 -330.498 C 739.035 -332.53 736.77 -334.677 734.867 -335.966 C 734.096 -336.489 731.651 -335.176 730.4 -334.167 C 718.932 -324.911 707.557 -315.537 695.614 -305.755 Z" style="fill: rgb(204, 51, 0); transform-origin: 715.183px -309.926px;"/>
  <path opacity="1.000000" stroke="none" d="M 247.888 -322.177 C 250.39 -330.976 251.722 -339.916 255.544 -347.555 C 267.368 -371.184 296.667 -367.718 307.877 -348.978 C 316.678 -334.265 318.243 -318.604 317.774 -302.549 C 317.425 -290.626 316.862 -278.547 311.504 -267.617 C 309.921 -264.39 308.082 -261.22 305.901 -258.384 C 294.587 -243.679 280.048 -242.29 265.2 -254.451 C 255.078 -262.741 251.117 -274.251 249.679 -286.346 C 248.286 -298.067 248.404 -309.924 247.888 -322.177 M 275.045 -346.737 C 274.765 -345.792 274.433 -344.86 274.213 -343.9 C 269.936 -325.279 271.579 -306.287 272.683 -287.373 C 273.068 -280.785 274.542 -274.191 275.95 -267.68 C 276.844 -263.539 279.204 -260.23 284.059 -259.973 C 289.086 -259.708 290.589 -263.398 291.289 -267.188 C 292.786 -275.283 294.466 -283.417 294.947 -291.636 C 295.95 -308.75 295.047 -325.897 289.969 -342.594 C 288.911 -346.071 286.128 -349.675 283.137 -351.706 C 282.001 -352.477 278.039 -348.979 275.045 -346.737 Z" style="fill: rgb(204, 51, 0); transform-origin: 295.963px -305.069px;"/>
  <path opacity="1.000000" stroke="none" d="M 104.263 -313.093 C 103.324 -324.983 105.756 -335.646 109.953 -346.024 C 117.21 -363.979 136.723 -370.843 153.877 -361.015 C 162.136 -356.282 166.627 -348.024 169.203 -339.624 C 176.86 -314.661 176.283 -289.97 166.154 -266.133 C 165.706 -265.08 165.091 -264.085 164.443 -263.141 C 158.476 -254.449 151.438 -246.762 139.677 -248.03 C 127.016 -249.394 117.489 -256.458 111.788 -268.083 C 104.838 -282.25 103.501 -297.303 104.263 -313.093 M 147.396 -268.719 C 152.351 -285.976 152.267 -303.763 150.451 -321.543 C 149.545 -330.408 147.123 -339.224 144.652 -347.873 C 143.993 -350.18 140.665 -353.208 138.494 -353.331 C 136.224 -353.46 133.221 -350.94 131.736 -348.746 C 130.183 -346.451 129.83 -343.213 129.338 -340.309 C 126.496 -323.548 126.929 -306.591 128.623 -289.648 C 129.363 -282.247 130.99 -274.871 132.716 -267.589 C 133.639 -263.696 136.583 -261.305 140.897 -261.48 C 145.01 -261.647 146.387 -264.527 147.396 -268.719 Z" style="fill: rgb(204, 51, 0); transform-origin: 152.114px -306.574px;"/>
  <path opacity="1.000000" stroke="none" d="M -63.867 -521.148 C -66.859 -528.334 -69.574 -535.217 -72.623 -541.956 C -74.098 -545.217 -74.014 -547.216 -70.304 -548.411 C -66.703 -549.57 -63.148 -550.955 -59.757 -552.602 C -56.073 -554.39 -54.111 -553.505 -52.535 -549.584 C -48.146 -538.669 -43.453 -527.87 -38.855 -517.035 C -38.309 -515.749 -37.606 -514.527 -36.412 -512.152 C -35.644 -514.369 -35.08 -515.33 -34.998 -516.343 C -33.925 -529.579 -32.579 -542.799 -32.058 -556.076 C -31.827 -561.971 -29.163 -564.958 -24.136 -566.434 C -13.88 -569.444 -11.62 -570.914 -13.809 -558.462 C -16.014 -545.923 -17.565 -533.249 -19.726 -520.7 C -20.438 -516.568 -19.503 -513.716 -16.116 -511.126 C -0.016 -498.82 16.01 -486.415 32 -473.964 C 33.223 -473.012 34.706 -471.418 34.711 -470.158 C 34.716 -469.072 32.975 -467.629 31.675 -467.053 C 27.017 -464.987 22.235 -463.186 17.47 -461.356 C 14.053 -460.045 11.241 -460.862 8.353 -463.474 C -0.546 -471.519 -9.639 -479.351 -18.795 -487.101 C -20.111 -488.215 -22.187 -488.422 -23.91 -489.048 C -23.992 -487.148 -24.695 -485.018 -24.051 -483.384 C -20.541 -474.475 -16.678 -465.695 -12.976 -456.856 C -9.952 -449.635 -9.998 -449.556 -17.072 -446.79 C -18.452 -446.252 -19.878 -445.825 -21.275 -445.327 C -30.577 -442.012 -30.332 -442.107 -34.322 -451.639 C -43.991 -474.739 -53.91 -497.741 -63.867 -521.148 Z" style="fill: rgb(204, 51, 0); transform-origin: -0.46px -505.711px;"/>
  <path opacity="1.000000" stroke="none" d="M -161.868 -394.634 C -157.452 -386.002 -155.666 -377.263 -156.177 -368.11 C -156.822 -356.53 -165.298 -347.975 -177.811 -346.127 C -185.968 -344.924 -193.939 -345.938 -201.055 -350.295 C -223.253 -363.884 -240.185 -382.107 -249.361 -406.783 C -252.312 -414.718 -251.758 -422.523 -248.632 -430.12 C -243.981 -441.429 -230.313 -448.391 -218.169 -445.666 C -208.168 -443.421 -199.134 -439.123 -191.492 -432.097 C -179.716 -421.27 -169.739 -409.003 -161.868 -394.634 M -194.607 -403.93 C -203.938 -413.981 -213.566 -423.741 -225.781 -430.249 C -227.902 -431.378 -232.017 -431.646 -233.42 -430.362 C -235.168 -428.766 -235.454 -425.176 -235.592 -422.386 C -235.671 -420.78 -234.358 -418.966 -233.42 -417.392 C -222.15 -398.496 -207.3 -382.632 -190.85 -368.201 C -187.49 -365.253 -183.615 -362.552 -179.542 -360.854 C -174.351 -358.69 -169.794 -363.158 -171.107 -368.602 C -171.572 -370.526 -172.302 -372.536 -173.427 -374.155 C -180.245 -383.957 -187.213 -393.658 -194.607 -403.93 Z" style="fill: rgb(204, 51, 0); transform-origin: -188.23px -395.794px;"/>
  <path opacity="1.000000" stroke="none" d="M 318.24 -580.192 C 323.909 -586.833 330.782 -590.626 339.254 -591.582 C 351.138 -592.921 366.546 -584.19 370.97 -566.77 C 373.911 -555.192 373.551 -543.928 371.427 -532.643 C 368.792 -518.64 365.557 -504.73 357.01 -493.082 C 351.168 -485.12 343.933 -478.516 333.373 -477.71 C 320.681 -476.742 306.874 -488.249 303.091 -502.256 C 299.877 -514.162 300.158 -526.037 302.313 -537.871 C 305.044 -552.874 308.088 -567.779 318.24 -580.192 M 332.952 -491.276 C 334.639 -493.427 336.751 -495.358 337.945 -497.765 C 346.396 -514.785 349.857 -533.223 351.059 -552.189 C 351.456 -558.437 351.122 -564.788 350.653 -571.071 C 350.399 -574.495 349.661 -578.476 345.361 -579.307 C 341.007 -580.148 338.171 -577.535 336.31 -573.94 C 335.259 -571.91 334.226 -569.798 333.668 -567.587 C 330.652 -555.634 327.196 -543.759 325.053 -531.618 C 323.313 -521.755 322.806 -511.58 322.515 -501.498 C 322.305 -494.207 325.766 -491.08 332.952 -491.276 Z" style="fill: rgb(204, 51, 0); transform-origin: 356.798px -534.475px;"/>
  <path opacity="1.000000" stroke="none" d="M 406.761 -355.767 C 425.642 -342.079 424.999 -316.959 405.431 -305.442 C 399.292 -301.83 392.271 -299.609 385.527 -297.068 C 378.054 -294.251 377.575 -293.082 378.073 -284.991 C 378.777 -273.517 378.791 -262.023 379.151 -250.538 C 379.244 -247.561 377.836 -246.326 374.963 -246.399 C 370.303 -246.516 365.642 -246.607 360.983 -246.648 C 358.302 -246.674 357.064 -247.861 357.002 -250.62 C 356.615 -267.735 356.171 -284.851 355.706 -301.967 C 355.222 -319.776 354.683 -337.585 354.185 -355.395 C 354.002 -361.943 354.022 -362.07 360.774 -361.874 C 370.588 -361.589 380.437 -361.561 390.201 -360.52 C 395.685 -359.935 401.03 -357.532 406.761 -355.767 M 385.965 -309.347 C 399.942 -317.265 397.928 -338.98 388.652 -347.719 C 386.643 -349.612 382.54 -350.416 379.782 -349.917 C 378.253 -349.64 376.612 -345.667 376.572 -343.288 C 376.411 -333.815 376.817 -324.314 377.098 -314.825 C 377.285 -308.502 379.043 -307.307 385.965 -309.347 Z" style="fill: rgb(204, 51, 0); transform-origin: 401.017px -303.801px;"/>
  <path opacity="1.000000" stroke="none" d="M 272.391 109.766 C 277.516 120.188 277.758 129.991 271.782 139.445 C 270.994 140.691 270.192 141.933 269.474 143.221 C 264.975 151.294 259.966 158.379 249.39 159.359 C 236.147 160.586 223.853 158.923 213.198 149.74 C 208.808 145.956 207.005 140.976 206.533 135.522 C 205.305 121.304 206.61 107.746 218.254 98.037 C 234.062 84.858 262.232 90.937 272.391 109.766 Z" style="fill: rgb(204, 51, 0); transform-origin: 240.941px 125.355px;"/>
  <path opacity="1.000000" stroke="none" d="M 657.8 -394.684 C 653.823 -390.121 650.091 -385.81 646.032 -381.124 C 649.987 -377.402 653.601 -373.649 657.59 -370.357 C 660.877 -367.644 660.964 -365.19 659.04 -361.75 C 654.191 -353.085 653.415 -352.933 646.424 -360.695 C 643.598 -363.834 640.793 -366.991 637.951 -370.116 C 637.76 -370.326 637.346 -370.335 636.551 -370.597 C 629.146 -362.392 621.606 -354.036 613.437 -344.984 C 618.465 -341.25 623.052 -337.635 627.844 -334.325 C 636.62 -328.263 636.532 -328.074 628.757 -321.818 C 624.766 -318.606 621.978 -318.746 618.111 -322.375 C 608.271 -331.61 598.06 -340.446 587.731 -349.679 C 588.805 -351.191 589.515 -352.467 590.479 -353.507 C 600.615 -364.43 610.87 -375.244 620.937 -386.232 C 633.339 -399.769 645.575 -413.46 657.92 -427.052 C 662.365 -431.943 662.522 -432.015 667.633 -427.179 C 676.71 -418.59 685.699 -409.903 694.549 -401.08 C 695.519 -400.113 696.116 -397.545 695.538 -396.477 C 693.631 -392.952 691.105 -389.775 688.817 -386.464 C 685.863 -389.113 682.74 -391.599 679.997 -394.451 C 676.374 -398.216 673.049 -402.267 669.038 -406.83 C 665.252 -402.736 661.648 -398.835 657.8 -394.684 Z" style="fill: rgb(204, 51, 0); transform-origin: 656.852px -375px;"/>
  <path opacity="1.000000" stroke="none" d="M 90.491 -495.901 C 94.907 -497.414 98.918 -498.906 103.023 -500.11 C 104.121 -500.432 106.556 -499.99 106.595 -499.708 C 107.154 -495.616 107.896 -491.427 107.483 -487.409 C 107.332 -485.943 104.446 -484.211 102.494 -483.715 C 90.34 -480.632 78.066 -477.978 65.904 -474.922 C 62.491 -474.064 61.742 -475.98 61.113 -478.368 C 58.766 -487.268 56.402 -496.166 54.206 -505.099 C 49.937 -522.462 45.761 -539.844 41.582 -557.225 C 39.822 -564.543 38.321 -571.92 36.366 -579.19 C 35.314 -583.101 36.079 -584.972 40.248 -585.74 C 52.908 -588.069 65.487 -590.781 78.144 -593.122 C 79.36 -593.346 80.911 -592.027 82.297 -591.401 C 82.42 -591.346 82.477 -591.125 82.554 -590.976 C 89.486 -577.618 89.183 -578.112 75.851 -577.013 C 70.588 -576.58 65.36 -575.832 59.335 -575.137 C 61.306 -567.549 63.137 -560.32 65.073 -553.117 C 66.103 -549.282 66.24 -543.785 68.746 -542.163 C 71.231 -540.554 76.185 -542.868 80.056 -543.461 C 80.219 -543.487 80.384 -543.508 80.546 -543.538 C 88.292 -545.019 93.149 -541.677 94.017 -533.85 C 94.135 -532.783 92.279 -530.766 91.035 -530.52 C 85.857 -529.498 80.527 -529.146 75.336 -528.168 C 74.1 -527.935 72.102 -526.007 72.284 -525.239 C 74.773 -514.69 77.584 -504.209 80.513 -492.956 C 83.951 -493.963 87.036 -494.867 90.491 -495.901 Z" style="fill: rgb(204, 51, 0); transform-origin: 91.603px -533.719px;"/>
  <path opacity="1.000000" stroke="none" d="M 39.193 -366.85 C 54.253 -367.319 66.265 -359.354 71.334 -345.743 C 71.753 -344.62 71.964 -342.806 71.36 -342.05 C 67.308 -336.975 63.009 -332.1 57.897 -326.116 C 56.448 -330.283 55.488 -333.196 54.423 -336.071 C 52.617 -340.949 51.062 -345.946 48.822 -350.631 C 46.128 -356.261 41.096 -356.814 37.429 -351.983 C 36.005 -350.106 35.034 -347.627 34.615 -345.265 C 30.782 -323.689 31.576 -301.962 34.956 -280.197 C 35.335 -277.759 36.142 -275.271 37.254 -273.045 C 43.601 -260.332 50.679 -258.646 61.886 -266.728 C 63.322 -267.763 65.675 -267.553 67.602 -267.921 C 67.57 -265.799 68.268 -263.267 67.384 -261.618 C 61.398 -250.45 46.554 -246.823 33.857 -252.903 C 23.79 -257.723 17.297 -265.573 13.915 -275.926 C 12.1 -281.481 10.304 -287.239 9.862 -292.969 C 8.597 -309.41 6.973 -326.05 12.389 -341.885 C 16.741 -354.605 23.958 -364.836 39.193 -366.85 Z" style="fill: rgb(204, 51, 0); transform-origin: 53.495px -308.319px;"/>
  <path opacity="1.000000" stroke="none" d="M 214.416 -295.615 C 212.202 -295.449 210.36 -295.077 208.577 -295.306 C 201.141 -296.265 197.063 -300.237 196.647 -306.661 C 196.123 -314.748 200.065 -320.945 206.553 -322.235 C 214.676 -323.851 220.769 -321.066 223.7 -314.399 C 226.756 -307.446 222.338 -298.144 214.416 -295.615 Z" style="fill: rgb(204, 51, 0); transform-origin: 223.614px -308.82px;"/>
  <path opacity="1.000000" stroke="none" d="M -294.436 -299.536 C -294.163 -299.401 -293.999 -299.148 -293.835 -298.895 C -294.086 -298.845 -294.338 -298.795 -294.675 -298.963 C -294.761 -299.184 -294.545 -299.419 -294.436 -299.536 Z" style="fill: rgb(204, 51, 0); transform-origin: -281.748px -299.06px;"/>
  <path opacity="1.000000" stroke="none" d="M 448.97 -495.757 C 449.143 -495.808 449.509 -495.664 449.714 -495.351 C 449.423 -495.308 449.292 -495.435 448.97 -495.757 Z" style="fill: rgb(204, 51, 0); transform-origin: 468.083px -495.359px;"/>
</svg>