 <svg  version="1.0" xmlns="http://www.w3.org/2000/svg"  width="450.000000pt" height="237.000000pt" viewBox="0 0 450.000000 237.000000"  preserveAspectRatio="xMidYMid meet">  <g transform="translate(0.000000,237.000000) scale(0.050000,-0.050000)" fill="#cc3300" stroke="none"> <path d="M4216 4585 c-16 -19 -95 -200 -176 -401 -80 -201 -155 -362 -165 -359 -11 4 -97 175 -192 381 l-173 374 -170 0 c-254 -1 -255 37 19 -558 220 -478 241 -535 241 -640 0 -64 6 -251 13 -417 l13 -301 97 -12 c78 -11 107 -26 152 -83 33 -42 73 -69 100 -69 l45 0 0 517 0 517 210 522 c116 287 210 532 210 543 0 37 -190 25 -224 -14z"/> <path d="M5004 4565 c-10 -19 -29 -219 -42 -445 -12 -225 -32 -531 -42 -680 -39 -545 -55 -910 -40 -926 19 -22 512 -57 590 -42 52 9 73 33 137 158 148 288 265 390 446 390 97 0 114 39 151 342 98 823 -259 1237 -1068 1238 -89 0 -119 -8 -132 -35z m585 -307 c144 -132 176 -222 187 -517 20 -549 -78 -847 -326 -992 -157 -92 -176 -54 -150 291 11 138 29 471 42 740 28 607 54 657 247 478z"/> <path d="M2491 4535 c-28 -120 -116 -535 -169 -795 -32 -159 -96 -470 -141 -690 -45 -220 -96 -461 -114 -536 -38 -162 -49 -149 122 -135 l139 11 41 210 41 210 168 16 c202 20 198 23 271 -201 l54 -165 99 0 c68 0 122 14 173 46 41 25 100 56 130 69 72 32 74 25 -68 362 -156 374 -355 881 -476 1213 -100 276 -153 391 -189 415 -40 27 -71 15 -81 -30z m141 -1280 c35 -102 70 -200 77 -217 16 -39 -37 -57 -164 -58 -101 0 -103 7 -53 265 52 273 48 273 140 10z"/> <path d="M7033 4396 c-15 -36 -181 -408 -368 -827 l-340 -760 -8 -210 -7 -209 73 -6 c64 -5 74 0 86 49 8 31 31 94 53 141 21 47 48 108 58 136 21 55 29 56 228 31 164 -21 165 -23 183 -232 17 -213 9 -205 250 -236 304 -40 293 -65 198 448 -75 410 -172 1016 -210 1320 -51 401 -121 529 -196 355z m-99 -1509 c-14 -13 -230 31 -242 50 -8 13 138 362 178 423 14 21 27 -41 47 -216 16 -135 23 -250 17 -257z"/> <path d="M1372 4410 c-205 -30 -201 -26 -232 -238 -51 -354 -138 -857 -150 -868 -21 -22 -53 44 -319 676 -143 337 -134 328 -283 301 -65 -11 -152 -26 -193 -32 -94 -14 -95 43 14 -732 49 -349 107 -793 130 -989 44 -393 45 -394 181 -375 102 14 121 33 108 106 -44 241 -143 1014 -131 1026 14 14 205 -391 355 -755 181 -440 234 -420 320 122 118 738 150 871 176 744 10 -45 66 -420 130 -866 l32 -220 140 6 c203 9 250 21 250 64 0 38 -68 499 -219 1500 -45 292 -81 537 -81 545 0 18 -1 18 -228 -15z"/> <path d="M7620 4289 c0 -20 63 -278 140 -572 124 -472 139 -545 122 -621 -56 -261 -128 -880 -104 -895 39 -24 348 -63 364 -46 7 8 28 114 45 235 111 756 108 748 303 1050 225 351 434 703 423 713 -26 27 -194 31 -223 7 -17 -14 -122 -173 -234 -353 -111 -180 -212 -327 -225 -327 -12 0 -70 178 -129 399 -65 243 -118 403 -135 409 -95 37 -347 37 -347 1z"/> <path d="M4473 3499 c-82 -65 -77 -206 8 -250 86 -44 172 -22 221 58 97 156 -83 307 -229 192z"/> <path d="M5876 2910 c-89 -60 -178 -205 -349 -564 -203 -428 -199 -425 -437 -338 l-133 48 -21 -47 c-40 -88 56 -169 202 -169 107 0 107 -3 -99 -432 -144 -302 -236 -393 -320 -317 -73 66 -33 219 129 506 96 169 75 211 -68 136 -45 -23 -56 -21 -115 30 -212 182 -455 56 -683 -354 -175 -316 -328 -488 -579 -652 -305 -200 -511 -123 -584 218 -101 474 672 1669 910 1406 116 -128 -59 -562 -272 -673 l-58 -30 40 -56 c81 -114 257 -158 310 -77 209 319 208 1008 -2 1047 -494 93 -1173 -548 -1329 -1253 -242 -1098 708 -1358 1407 -385 69 96 95 107 95 41 1 -257 325 -233 568 42 47 53 72 55 72 5 0 -21 17 -59 38 -85 l38 -47 90 65 c141 101 144 81 24 -153 -243 -476 -384 -628 -491 -531 -70 63 33 229 142 229 55 0 44 89 -22 182 -53 74 -50 75 -177 -36 -314 -274 -100 -676 270 -508 226 103 476 509 923 1503 119 264 313 253 200 -11 -90 -210 -45 -436 94 -473 239 -64 831 284 831 488 l0 99 -141 -151 c-321 -343 -692 -399 -619 -93 31 129 45 135 135 61 177 -146 422 47 441 348 21 327 -219 396 -494 142 -130 -120 -302 -174 -302 -93 0 20 32 108 71 195 243 533 373 704 469 617 70 -63 40 -163 -92 -309 l-69 -77 87 -42 c176 -85 217 -57 256 178 57 344 -143 535 -386 370z m319 -920 c9 -146 -114 -326 -190 -278 -85 54 -64 175 51 294 92 95 132 90 139 -16z m-1608 -360 c35 -35 -12 -243 -89 -393 -146 -287 -379 -324 -308 -50 74 284 302 538 397 443z"/> </g> </svg> 